HIERARCHY
ROOT Hips
{
	OFFSET -14.64140 90.27770 -84.91600
	CHANNELS 6 Xposition Yposition Zposition Zrotation Xrotation Yrotation
	JOINT Spine
	{
		OFFSET 0.00000 13.20850 -1.60436
		CHANNELS 3 Zrotation Xrotation Yrotation
		JOINT Spine1
		{
			OFFSET 0.00000 8.61716 0.00000
			CHANNELS 3 Zrotation Xrotation Yrotation
			JOINT Spine2
			{
				OFFSET 0.00000 8.61717 0.00000
				CHANNELS 3 Zrotation Xrotation Yrotation
				JOINT Spine3
				{
					OFFSET 0.00000 8.61717 0.00000
					CHANNELS 3 Zrotation Xrotation Yrotation
					JOINT Neck
					{
						OFFSET 0.00000 11.07920 1.10792
						CHANNELS 3 Zrotation Xrotation Yrotation
						JOINT Neck1
						{
							OFFSET 0.00000 7.08032 0.00000
							CHANNELS 3 Zrotation Xrotation Yrotation
							JOINT Head
							{
								OFFSET 0.00000 7.08031 0.00000
								CHANNELS 3 Zrotation Xrotation Yrotation
								End site
								{
									OFFSET 0.00000 0.00000 0.00000
								}
							}
						}
					}
					JOINT RightShoulder
					{
						OFFSET -0.01000 7.91373 5.19711
						CHANNELS 3 Zrotation Xrotation Yrotation
						JOINT RightArm
						{
							OFFSET -18.41580 0.00000 0.00000
							CHANNELS 3 Zrotation Xrotation Yrotation
							JOINT RightForeArm
							{
								OFFSET -29.11090 0.00000 0.00000
								CHANNELS 3 Zrotation Xrotation Yrotation
								JOINT RightHand
								{
									OFFSET -24.65040 0.00000 0.00000
									CHANNELS 3 Zrotation Xrotation Yrotation
									JOINT RightHandThumb1
									{
										OFFSET -5.35114 -0.85590 3.97906
										CHANNELS 3 Zrotation Xrotation Yrotation
										JOINT RightHandThumb2
										{
											OFFSET -4.52789 0.00000 0.00000
											CHANNELS 3 Zrotation Xrotation Yrotation
											JOINT RightHandThumb3
											{
												OFFSET -2.46976 0.00000 0.00000
												CHANNELS 3 Zrotation Xrotation Yrotation
												End site
												{
													OFFSET 0.00000 0.00000 0.00000
												}
											}
										}
									}
									JOINT RightHandIndex1
									{
										OFFSET -14.26970 0.00000 2.88139
										CHANNELS 3 Zrotation Xrotation Yrotation
										JOINT RightHandIndex2
										{
											OFFSET -5.48836 0.00000 0.00000
											CHANNELS 3 Zrotation Xrotation Yrotation
											JOINT RightHandIndex3
											{
												OFFSET -3.01859 0.00000 0.00000
												CHANNELS 3 Zrotation Xrotation Yrotation
												End site
												{
													OFFSET 0.00000 0.00000 0.00000
												}
											}
										}
									}
									JOINT RightHandMiddle1
									{
										OFFSET -14.26970 0.00000 -0.09147
										CHANNELS 3 Zrotation Xrotation Yrotation
										JOINT RightHandMiddle2
										{
											OFFSET -6.17441 0.00000 0.00000
											CHANNELS 3 Zrotation Xrotation Yrotation
											JOINT RightHandMiddle3
											{
												OFFSET -3.56743 0.00000 0.00000
												CHANNELS 3 Zrotation Xrotation Yrotation
												End site
												{
													OFFSET 0.00000 0.00000 0.00000
												}
											}
										}
									}
									JOINT RightHandRing1
									{
										OFFSET -12.69180 0.00000 -3.06433
										CHANNELS 3 Zrotation Xrotation Yrotation
										JOINT RightHandRing2
										{
											OFFSET -5.62556 0.00000 0.00000
											CHANNELS 3 Zrotation Xrotation Yrotation
											JOINT RightHandRing3
											{
												OFFSET -3.56744 0.00000 0.00000
												CHANNELS 3 Zrotation Xrotation Yrotation
												End site
												{
													OFFSET 0.00000 0.00000 0.00000
												}
											}
										}
									}
									JOINT RightHandPinky1
									{
										OFFSET -11.11390 0.00000 -6.03719
										CHANNELS 3 Zrotation Xrotation Yrotation
										JOINT RightHandPinky2
										{
											OFFSET -4.52789 0.00000 0.00000
											CHANNELS 3 Zrotation Xrotation Yrotation
											JOINT RightHandPinky3
											{
												OFFSET -2.46976 0.00000 0.00000
												CHANNELS 3 Zrotation Xrotation Yrotation
												End site
												{
													OFFSET 0.00000 0.00000 0.00000
												}
											}
										}
									}
								}
							}
						}
					}
					JOINT LeftShoulder
					{
						OFFSET 0.01000 7.91373 5.19711
						CHANNELS 3 Zrotation Xrotation Yrotation
						JOINT LeftArm
						{
							OFFSET 18.41580 0.00000 0.00000
							CHANNELS 3 Zrotation Xrotation Yrotation
							JOINT LeftForeArm
							{
								OFFSET 29.11090 0.00000 0.00000
								CHANNELS 3 Zrotation Xrotation Yrotation
								JOINT LeftHand
								{
									OFFSET 24.65040 0.00000 0.00000
									CHANNELS 3 Zrotation Xrotation Yrotation
									JOINT LeftHandThumb1
									{
										OFFSET 5.35114 -0.85590 3.97906
										CHANNELS 3 Zrotation Xrotation Yrotation
										JOINT LeftHandThumb2
										{
											OFFSET 4.52789 0.00000 0.00000
											CHANNELS 3 Zrotation Xrotation Yrotation
											JOINT LeftHandThumb3
											{
												OFFSET 2.46977 0.00000 0.00000
												CHANNELS 3 Zrotation Xrotation Yrotation
												End site
												{
													OFFSET 0.00000 0.00000 0.00000
												}
											}
										}
									}
									JOINT LeftHandIndex1
									{
										OFFSET 14.26970 0.00000 2.88139
										CHANNELS 3 Zrotation Xrotation Yrotation
										JOINT LeftHandIndex2
										{
											OFFSET 5.48836 0.00000 0.00000
											CHANNELS 3 Zrotation Xrotation Yrotation
											JOINT LeftHandIndex3
											{
												OFFSET 3.01859 0.00000 0.00000
												CHANNELS 3 Zrotation Xrotation Yrotation
												End site
												{
													OFFSET 0.00000 0.00000 0.00000
												}
											}
										}
									}
									JOINT LeftHandMiddle1
									{
										OFFSET 14.26970 0.00000 -0.09147
										CHANNELS 3 Zrotation Xrotation Yrotation
										JOINT LeftHandMiddle2
										{
											OFFSET 6.17440 0.00000 0.00000
											CHANNELS 3 Zrotation Xrotation Yrotation
											JOINT LeftHandMiddle3
											{
												OFFSET 3.56744 0.00000 0.00000
												CHANNELS 3 Zrotation Xrotation Yrotation
												End site
												{
													OFFSET 0.00000 0.00000 0.00000
												}
											}
										}
									}
									JOINT LeftHandRing1
									{
										OFFSET 12.69180 0.00000 -3.06433
										CHANNELS 3 Zrotation Xrotation Yrotation
										JOINT LeftHandRing2
										{
											OFFSET 5.62556 0.00000 0.00000
											CHANNELS 3 Zrotation Xrotation Yrotation
											JOINT LeftHandRing3
											{
												OFFSET 3.56744 0.00000 0.00000
												CHANNELS 3 Zrotation Xrotation Yrotation
												End site
												{
													OFFSET 0.00000 0.00000 0.00000
												}
											}
										}
									}
									JOINT LeftHandPinky1
									{
										OFFSET 11.11390 0.00000 -6.03719
										CHANNELS 3 Zrotation Xrotation Yrotation
										JOINT LeftHandPinky2
										{
											OFFSET 4.52789 0.00000 0.00000
											CHANNELS 3 Zrotation Xrotation Yrotation
											JOINT LeftHandPinky3
											{
												OFFSET 2.46976 0.00000 0.00000
												CHANNELS 3 Zrotation Xrotation Yrotation
												End site
												{
													OFFSET 0.00000 0.00000 0.00000
												}
											}
										}
									}
								}
							}
						}
					}
					JOINT pCube4
					{
						OFFSET 0.00000 10.91090 1.10792
						CHANNELS 3 Zrotation Xrotation Yrotation
						End site
						{
							OFFSET 0.00000 0.00000 0.00000
						}
					}
				}
			}
		}
	}
	JOINT RightUpLeg
	{
		OFFSET -9.98441 0.00000 0.00000
		CHANNELS 3 Zrotation Xrotation Yrotation
		JOINT RightLeg
		{
			OFFSET 0.00000 -42.11790 0.00000
			CHANNELS 3 Zrotation Xrotation Yrotation
			JOINT RightFoot
			{
				OFFSET 0.00000 -45.00020 -0.00001
				CHANNELS 3 Zrotation Xrotation Yrotation
				JOINT RightForeFoot
				{
					OFFSET 0.00000 -3.74820 0.00000
					CHANNELS 3 Zrotation Xrotation Yrotation
					JOINT RightToeBase
					{
						OFFSET 0.00000 0.06325 14.43120
						CHANNELS 3 Zrotation Xrotation Yrotation
						End site
						{
							OFFSET 0.00000 0.00000 0.00000
						}
					}
				}
			}
		}
	}
	JOINT LeftUpLeg
	{
		OFFSET 9.98441 0.00000 0.00000
		CHANNELS 3 Zrotation Xrotation Yrotation
		JOINT LeftLeg
		{
			OFFSET 0.00000 -42.11800 0.00000
			CHANNELS 3 Zrotation Xrotation Yrotation
			JOINT LeftFoot
			{
				OFFSET 0.00000 -45.00070 0.00000
				CHANNELS 3 Zrotation Xrotation Yrotation
				JOINT LeftForeFoot
				{
					OFFSET 0.00000 -3.74824 0.00000
					CHANNELS 3 Zrotation Xrotation Yrotation
					JOINT LeftToeBase
					{
						OFFSET 0.00000 0.06325 14.43110
						CHANNELS 3 Zrotation Xrotation Yrotation
						End site
						{
							OFFSET 0.00000 0.00000 0.00000
						}
					}
				}
			}
		}
	}
}
MOTION
Frames: 4
Frame Time: 0.050000
-0.018146734762332306 -0.041340705523609286 0.01458638883413496 0.029909478954411713 -0.012626807528126758 0.025119024358749766 2.636957264192313 3.6559407969940594 -1.7743179192052323 -0.8890718403421756 3.5592333634624103 0.35946184629259315 -0.7875226701934709 -1.0583745684905161 0.38496304151667127 -0.6271963188973533 -0.08840036646157391 -0.355126898423696 -0.1878188228327535 10.56525281512734 -0.4464019270956638 0.30669728427305376 -2.09630077140046 -1.58180560033874 0.7916804536910129 -19.4250970306262 -0.23039924753454244 -7.264170558631376 2.8462505521837325 -15.99074215019756 82.91683643033963 20.625202572963026 2.2714784255372362 -8.399370410001898 0.5124476504024513 50.6481286423684 19.119105362314066 -0.2631001560489635 -3.1095503272558367 4.541422972127119 -0.08532920557496597 -1.5905923945869456 -0.0017178368023853907 -0.02128274860836623 -56.22503656668074 -0.0035565931829369198 -3.633011092339472e-05 -56.2394884583379 -38.757260968997464 0.016208523812339264 -0.04253482851768236 0.021316048200724767 0.04946190049412278 -0.04817695524040695 0.02556764907525924 -0.02395775933146442 0.023415777732023756 -36.70497135585972 -0.011348652203208597 0.049037790692892366 0.023567181762952947 -0.022082600729876955 -0.014237532844305744 0.013275984480532257 -0.043233839073352445 -0.006292004139458809 -19.769841866119553 -0.034529013284355974 0.017716995854683906 -0.01738186532296458 -0.004877590780538548 -0.040290353727090014 0.0423225556632383 0.020250693116623458 -0.012683295034943283 24.06012779621371 0.0016998715831155215 0.03358226653249202 28.858268972505254 -0.02309838669081172 0.04142501379728096 28.898263841981716 -0.03771692599618788 0.02437600743480002 7.680169347488783 1.9761453892785128 13.570938458768547 -77.39190923159067 24.762059170774478 -8.525291771847112 -0.5902967591112923 -0.3882049166299268 -41.56198318300921 -19.93464900416427 -5.3029652384230275 6.230400483128031 -0.4449878550799194 0.07880039839230853 -8.115730462418647 0.02286725848397638 0.023672887739037387 44.553443102298296 0.0019504564364475788 0.01943845724087865 44.589897183184355 12.456662644018635 0.0023097894409373414 0.03357357617059015 -0.023543157078042148 0.021478880137306318 0.04485603110807697 0.014167376365768121 0.0270606626018178 -0.03194009853376856 11.10666611920529 0.024169167176763928 -0.02438706779432024 0.01782197735853346 -0.03780910954334191 0.004776399687308552 0.01724426987789094 0.038715329619746754 -0.01430119455636679 4.770398936141055 0.04537674794302413 0.019392535198486476 -0.018010909748977025 0.032587228523468924 -0.006341116008901636 -0.040471370884119555 0.01250262265996712 -0.023223567040084325 -5.5912978405714995 -0.03657873315064732 0.03521745162572771 -6.690301833879128 -0.0029361088583830445 0.04193380899100882 -6.718609591212504 -5.282197316276443e-05 0.016463667899247723 -0.022971572431366168 -0.04924672791610118 -0.01785175492437632 8.010490878028738 3.4471854787537675 -19.215676936763764 -0.029593296401515173 10.376687713265914 0.0073554972025592 -5.628316986743122 -15.613987611510902 3.219228677272736 0.008540564385419069 -0.009869049151696323 0.028597910507708636 -0.034386359473661206 4.687236762397305 0.049570918431789825 12.461674190762022 -8.218457573256307 6.922501867346967 0.010035373747923284 46.367530697449695 0.049234303487431345 -4.293798285216457 -14.721779896806224 -3.811675541321062 0.0005917895559761568 -0.028546278573167425 0.043700273020455496 -0.022844278691488595 -10.758828728366225 -0.04265433967491406 
0.015195338789220747 0.024665943167532234 0.02350989718336578 -0.0190894850123217 -0.00038372564007665646 -0.018164900196606756 2.9457089562331578 3.6443446957925145 -1.8055114764961522 -0.8013195764510351 3.536420760241566 0.4276460247351182 -0.8003738842761517 -0.9430928719495559 0.48448282206933513 -0.5829526613543824 -0.07740835231439586 -0.37129755815684856 -0.20088977045739623 10.617747228961674 -0.522985030315108 0.27344692853925834 -1.9772999116840129 -1.765624495855586 0.8437626146653153 -19.256768433270466 -0.24552771696638986 -7.425032214602656 2.9239249537419583 -16.224055023072992 83.22596981676597 20.641369046072832 2.413823175307989 -9.09019471758829 -0.06223709611496296 50.9477435105422 18.942081929846378 -0.2877473461296285 -3.2348146485540017 4.508289096850644 -0.14420501020478682 -1.6201991192092424 -0.04680173035201585 -0.030610524915786492 -56.185885968012784 -0.03459506471500965 0.049438482514824925 -56.27998298197685 -38.74818540812747 -0.016075223133477385 0.0008914411746668715 0.012161681134503891 -0.027641445031878174 0.006257104565043999 0.003243392554529516 0.025561753762251123 0.04092326768914129 -36.68044992264027 -0.04606400615994119 0.03064722129756768 0.004992046323990074 -0.03882882479978643 0.0018315554584030754 0.02016115726214043 0.02650275418703096 0.03516997244298711 -19.731441907670863 -0.03665614811730294 -0.006791114447920926 -0.011522136157443042 0.017644409128232525 0.040887015951186885 0.02481844077668075 0.0076047177966210725 -0.010369743581604763 24.085633012914734 0.023073558045703418 -0.029959790301041088 28.876248513902244 0.0009458108644240947 0.015034426637943559 28.88628532892984 -0.010562584148572482 -0.002276222034430641 7.784929097087084 1.9314817652576162 13.69129067186728 -77.52712878110086 25.1535861049935 -8.489499867087414 -0.8148877225321194 0.03934083530598785 -42.1574718444373 -20.456133451336743 -5.915615524320025 6.648611956834937 -0.48598564290379376 0.020877904748271246 -8.159252285552071 -0.022866730871811958 -0.04891037442344619 44.610827369324504 -0.03006568796967495 -0.034536946555084574 44.58882269975992 12.462124966955047 0.004831594684864984 0.03246189135673391 0.03244243775163525 0.028598074878578066 0.006915364489006077 0.030994273329908645 -0.029899929183000967 0.004326654163885216 11.137030380433238 0.03062061901564704 -0.02892127279255031 -0.041900948668545684 -0.03337626155099196 0.016888247431683878 0.03435213719752546 -0.0062361507151751676 -0.03575328700495007 4.787103841832003 -0.0266581676829172 -0.03895944409813714 0.008432929951377293 -0.0015756920441596326 0.01875614909058435 6.64278218629931e-05 0.008314379435226869 0.024024862583749196 -5.607184237292802 -0.014171338479715875 0.018764657538647152 -6.730719064676838 0.013129485004093501 -0.022573200735711577 -6.7066036187629186 0.004924101932268756 -0.01975241096203599 -0.0002490847406839481 0.01017855103549465 -0.008707937816768645 8.056922076032548 3.5249237995879947 -19.253989109609535 -0.022037762146140834 10.444820755003818 -0.031609378794924856 -5.647372564626416 -15.705517454518075 3.1868946565396756 0.036397686962589736 -0.0407432788186026 0.028868725551814394 -0.001123987707773038 4.671517309872137 0.02097483651013545 12.409775935891082 -8.218493397603405 6.856714742229652 -0.0046986915961614506 46.38343343695452 0.013945756962875724 -4.344917824822493 -14.723425600732234 -3.839428876237958 -0.038841930907862095 0.02035960447945151 -0.03246244823502629 0.04646944588266719 -10.712397402811165 0.03921688232087743 
-0.009092307553622836 -0.033407927561970446 0.047440301191900736 0.013535111728392163 0.012956135599063782 0.001466443003596397 3.102333370696119 3.588239146609931 -1.8037707660105124 -0.8170135728645496 3.5444143235777843 0.4284715923090133 -0.7799956043393348 -1.0086550267782397 0.5067421671172504 -0.5978368105566857 -0.12807042344672853 -0.3248853962249108 -0.18661874319698063 10.724956963757887 -0.6342948940339531 0.3122117793238691 -1.92411870380283 -1.7844301605271642 0.798853933383462 -19.135671243328474 -0.19144936798353046 -7.636205378622887 2.958373412309863 -16.339524042366293 83.45260491536584 20.976616018799504 2.4883887145206414 -9.431295011613788 -0.9663793475209417 50.40139140137484 18.67316577734816 -0.2815896493501847 -3.3388609419044935 4.524396143752005 -0.1277121672031552 -1.60426243148314 0.03340315517859619 0.0479186770693878 -56.2397241361376 0.04118815736221674 -0.02949927690117172 -56.22794758959848 -38.727058306784386 -0.040500412071751195 -0.008617551336922357 -0.019772636629613354 -0.024013545490462175 0.020011279219542287 0.01151699836487273 -0.03490174578083889 0.007253698053045549 -36.66271156764394 0.004556943258783817 0.005846873721270786 0.02384394499250692 0.019424250177790415 0.009408641242781348 0.004171595011700924 -0.006278241505910402 0.030744375370972042 -19.766006158629956 -0.016216932466371892 0.01982831707671396 -0.004181822563794602 -0.009772547150209336 0.03147391814053615 -0.02132192040025677 -0.031350127262078864 0.03688100643684457 24.088976571880675 0.03318303589820538 -0.006575427736969968 28.85767548819911 0.02579774827235574 -0.011015713990018512 28.860494217149217 0.03112334119081205 -0.027976102851661987 7.822949768246667 2.007442466473299 13.795854044349626 -77.57114779101892 25.435962429708372 -8.51308496700578 -0.8289554363643785 -0.2950956427444297 -42.12422094694106 -20.44814128486892 -6.116326061821744 6.783798510775387 -0.4550857860529651 0.04170573509478907 -8.161899877665846 0.026056337501700368 0.046513344426681195 44.54440788972149 -0.0030481101880215264 0.028115745573156936 44.529752438914365 12.45300553563889 0.021434100416715906 -0.02824791980878977 0.001707370616402736 -0.025719378772268788 0.00363230253849334 0.001276582366387791 0.017481045901438237 -0.046387659000108036 11.124896767843039 0.0005787656225652848 0.038375877152932746 -0.030392180253216442 -0.046587560357511916 0.030203990927465705 -0.025147386778687816 0.025800006202375225 -0.0007843211354847078 4.776787800752385 0.00807217005617151 -0.02495936626274391 0.02693226940737244 0.004902111330528382 -0.020063445534956557 0.040199042319045405 0.0028342868125166036 -0.008464993090636967 -5.556301785339909 0.04054655028531197 -0.037893352707729415 -6.694987811563002 -0.03614749664632238 -0.042633478020714544 -6.735919450446269 -0.03886116550351099 -0.01104373329352034 -0.010098793939417977 0.013802715110222937 -0.013996391967927862 8.07029176426863 3.4793884310590837 -19.229103512789678 -0.005628949218201738 10.40174508662231 0.04690878936050724 -5.572211077757913 -15.644084088797907 3.1745072189836394 -0.0049459655092463995 -0.02314251226353969 0.04937494332047259 0.031925276374477445 4.705803791836596 0.016744352851357426 12.451548667704502 -8.26642633638434 6.86371449243072 -0.03957532290979985 46.35667637181493 -0.004678061861992786 -4.349386747882885 -14.7358972047993 -3.849155719792611 -0.0010704791536460645 -0.027888553209899015 -0.03307137860659771 -0.01043252633759315 -10.728434844137562 0.031508379280173235 
-0.018104557112016664 0.026057015679483056 0.007176200451064492 -0.0444025489313628 0.017838372362170084 -0.0025635617956220095 3.207718285240083 3.528968883468048 -1.871533295880993 -0.9149171734122076 3.5912645403968932 0.43205229405010787 -0.7995418004173372 -0.936416679464117 0.5086832438788648 -0.5414448522194343 -0.08416710353774551 -0.3965185729404743 -0.17853865141746533 10.768318760596157 -0.6019077193701635 0.3061561690050549 -1.8231893869686928 -1.6811718743314572 0.815312654174154 -18.988879742079213 -0.1972832595101302 -7.771245089577231 2.925574141934422 -16.54178032464217 83.58116658069568 20.943841330249548 2.089598196932347 -9.03802471241102 -1.64341509610322 48.74909203459227 18.535456627605395 -0.28917271736382066 -3.322321052922857 4.494752088368132 -0.115466305024762 -1.5953794827457226 0.01192728998393757 0.010823570483452461 -56.20664095215887 -0.0026571810256443454 0.04623077500485975 -56.196099534421734 -38.756499958191576 -0.016445594894240075 0.028142783532065556 -0.020273136236285343 -0.03777958412487265 -0.0034190515015218494 0.010831353892976727 -0.03432671230585255 -0.0024154607502131164 -36.71304990518957 0.04461453553792061 0.008844597674657688 0.0065126916530018645 -0.03383606413695506 -0.039853511441700455 0.03465932989959885 0.00965042662807899 0.030614648684357485 -19.743263298832748 0.004725201324023591 -0.02752251158478019 0.046092641637873674 0.035140363835618464 0.006151580195534962 -0.0010072571984153964 0.009995070616276488 -0.02732146916389638 24.03087044973841 -0.025876932642542688 0.0070693037121646405 28.83626037430714 0.028720462068888925 0.04165315041956927 28.82817972117835 0.012426470533713834 0.009192259330578366 7.899035337570099 1.962145199745588 13.931916949253738 -77.43523279979111 25.648565090601124 -8.087447308413397 0.05217116497154989 -1.0440301404403476 -41.281328292294944 -20.144928656327025 -5.812781883721256 6.555914989764762 -0.489763182968404 0.04968998889808823 -8.171296482243797 -0.00511288112853458 -0.012981570730951644 44.53798919327168 0.031877389533078754 0.015046353578044354 44.53917878951271 12.490807811124698 -0.002696148939934463 -0.0010155226660132864 -0.04152343489374684 -0.022302747977661297 -0.01441370369627732 -0.04259142336980064 -0.0455165987975773 0.043647014151316915 11.130398872468062 0.0025553298098277134 -0.009290198008686945 -0.017605176257449295 -0.03584884268612981 0.035857410594166514 0.007304862942470293 0.03837577274102127 0.01599627997485582 4.7456721564931685 -0.0035782151790958745 0.020423588804928696 0.011718715368275798 0.025474204942673717 -0.029418413041155726 -0.008697419090399396 0.04028774378529632 0.03861737289687596 -5.559871985936373 0.03445970439256369 0.03695115183449673 -6.724223566817969 0.03920894910375772 0.007972575270897047 -6.736314089855283 -0.008535391272504501 0.017282584304649334 0.004829180854619961 -0.04198582864919448 -0.012650772857891223 8.0779817875058 3.4535294957499936 -19.244229149700683 -0.003031657950695471 10.380457477357028 0.025742109573753634 -5.596524747346236 -15.699656509161066 3.2058786490699713 0.019363336281809838 0.03536037497068935 0.011174773651938707 0.043347118892276326 4.678760029978701 0.0371715588816759 12.416154400413257 -8.25097974034601 6.931327420946877 -0.010891769249724197 46.36038534701456 0.04683571970649775 -4.2954739658633505 -14.746094732445824 -3.850544708990087 -0.009746737364809415 -0.02830361228126169 0.020654655262841937 -0.018355913661690447 -10.753119945566706 0.022132318476045906 
